<svg xmlns="http://www.w3.org/2000/svg" width="512" height="352" viewBox="0 0 512 352"><rect width="100%" height="100%" fill="#1e1e1e" rx="8"/><g font-family="'DejaVu Sans Mono', 'Fira Code', 'Consolas', 'Liberation Mono', monospace" font-size="14px" xml:space="preserve"><text y="28.8"><tspan x="16 24 32 40 48 56 64 72 80 88 96 104 112 120 128 136 144 152 160 168 176 184 192 200 208 216 224 232 240 248 256 264 272 280 288 296 304 312 320 328 336 344 352 360 368 376 384 392 400 408 416 424 432 440 448 456 464 472 480 488" fill="#d4d4d4">                       Box &amp; Whisker                        </tspan></text><text y="44.8"><tspan x="16 24 32 40 48 56 64 72 80 88 96 104 112 120 128 136 144 152 160 168 176 184 192 200 208 216 224 232 240 248 256 264 272 280 288 296 304 312 320 328 336 344 352 360 368 376 384 392 400 408 416 424 432 440 448 456 464 472 480 488" fill="#d4d4d4">     ┌─────────────────────────────────────────────────────┐</tspan></text><text y="60.8"><tspan x="16 24 32 40 48 56 64 72 80 88 96 104 112 120 128 136 144 152 160 168 176 184 192 200 208 216 224 232 240 248 256 264 272 280 288 296 304 312 320 328 336 344 352 360 368 376 384 392 400 408 416 424 432 440 448 456 464 472 480 488" fill="#d4d4d4">   60┤⠀⠀⠀⠀⠀⠀⠀⠀⠀⠀⠀⠀⠀⠀⠀⠀⠀⠀⠀⠀⠀⠀⠀⠀⠀⠀⠀⠀⠀⠀⠀⠀⠀⠀⠀⠀⠀┌─────────────┐⠀│</tspan></text><text y="76.8"><tspan x="16 24 32 40 48 56 64 72 80 88 96 104 112 120 128 136 144 152 160 168 176 184 192 200 208 216 224 232 240 248 256 264 272 280 288 296 304 312 320 328" fill="#d4d4d4">     │⠀⠀⠀⠀⠀⠀⠀⠀⠀⠀⠀⠀⠀⠀⠀⠀⠀⠀⠀⠀⠀⠀⠀⠀⠀⠀⠀⠀⠀⠀⠀⠀⠀⠀</tspan><tspan x="336 344 352" fill="#4ec9b0">⢀⣀⣀</tspan><tspan x="360 368" fill="#d4d4d4">│ </tspan><tspan x="376 384 392" fill="#4ec9b0">───</tspan><tspan x="400 408 416 424 432 440 448 456 464 472 480 488" fill="#d4d4d4">  Scores │⠀│</tspan></text><text y="92.8"><tspan x="16 24 32 40 48 56 64 72 80 88 96 104 112 120 128 136 144 152 160" fill="#d4d4d4">   50┤⠀⠀⠀⠀⠀⠀⠀⠀⠀⠀⠀⠀⠀</tspan><tspan x="168 176 184 192 200" fill="#4ec9b0">⢀⣀⣀⣀⣀</tspan><tspan x="208 216 224 232 240 248 256 264 272 280 288 296 304 312 320 328 336 344" fill="#d4d4d4">⠀⠀⠀⠀⠀⠀⠀⠀⠀⠀⠀⠀⠀⠀⠀⠀⠀⠀</tspan><tspan x="352" fill="#4ec9b0">⢸</tspan><tspan x="360 368 376 384 392 400 408 416 424 432 440 448 456 464 472 480 488" fill="#d4d4d4">└─────────────┘⠀│</tspan></text><text y="108.8"><tspan x="16 24 32 40 48 56 64 72 80" fill="#d4d4d4">     │⠀⠀⠀</tspan><tspan x="88 96 104 112 120" fill="#4ec9b0">⣀⣀⣀⣀⡀</tspan><tspan x="128 136 144 152 160 168 176" fill="#d4d4d4">⠀⠀⠀⠀⠀⠀⠀</tspan><tspan x="184" fill="#4ec9b0">⢸</tspan><tspan x="192 200 208 216 224 232 240 248 256 264 272 280 288 296 304 312" fill="#d4d4d4">⠀⠀⠀⠀⠀⠀⠀⠀⠀⠀⠀⠀⠀⠀⠀⠀</tspan><tspan x="320 328 336 344 352 360 368 376 384" fill="#4ec9b0">⢰⠒⠒⠒⢺⠒⠒⠒⢲</tspan><tspan x="392 400 408 416" fill="#d4d4d4">⠀⠀⠀⠀</tspan><tspan x="424 432 440 448 456" fill="#4ec9b0">⠤⠤⡤⠤⠄</tspan><tspan x="464 472 480 488" fill="#d4d4d4">⠀⠀⠀│</tspan></text><text y="124.8"><tspan x="16 24 32 40 48 56 64 72 80 88 96" fill="#d4d4d4">s  40┤⠀⠀⠀⠀⠀</tspan><tspan x="104" fill="#4ec9b0">⡇</tspan><tspan x="112 120 128 136 144" fill="#d4d4d4">⠀⠀⠀⠀⠀</tspan><tspan x="152 160 168 176 184 192 200 208 216" fill="#4ec9b0">⢰⠒⠒⠒⢺⠒⠒⠒⢲</tspan><tspan x="224 232 240 248" fill="#d4d4d4">⠀⠀⠀⠀</tspan><tspan x="256 264 272 280 288" fill="#4ec9b0">⣀⣀⣀⣀⡀</tspan><tspan x="296 304 312" fill="#d4d4d4">⠀⠀⠀</tspan><tspan x="320 328 336 344 352 360 368 376 384" fill="#4ec9b0">⢸⣀⣀⣀⣸⣀⣀⣀⣸</tspan><tspan x="392 400" fill="#d4d4d4">⠀⠀</tspan><tspan x="408 416 424 432 440 448 456 464 472" fill="#4ec9b0">⣀⣀⣀⣀⣇⣀⣀⣀⡀</tspan><tspan x="480 488" fill="#d4d4d4">⠀│</tspan></text><text y="140.8"><tspan x="16 24 32 40 48 56 64" fill="#d4d4d4">c    │⠀</tspan><tspan x="72 80 88 96 104 112 120 128 136" fill="#4ec9b0">⡖⠒⠒⠒⡗⠒⠒⠒⡆</tspan><tspan x="144" fill="#d4d4d4">⠀</tspan><tspan x="152 160 168 176 184 192 200 208 216" fill="#4ec9b0">⢸⣀⣀⣀⣸⣀⣀⣀⣸</tspan><tspan x="224 232 240 248 256 264" fill="#d4d4d4">⠀⠀⠀⠀⠀⠀</tspan><tspan x="272" fill="#4ec9b0">⡇</tspan><tspan x="280 288 296 304 312" fill="#d4d4d4">⠀⠀⠀⠀⠀</tspan><tspan x="320" fill="#4ec9b0">⢸</tspan><tspan x="328 336 344" fill="#d4d4d4">⠀⠀⠀</tspan><tspan x="352" fill="#4ec9b0">⢸</tspan><tspan x="360 368 376" fill="#d4d4d4">⠀⠀⠀</tspan><tspan x="384" fill="#4ec9b0">⢸</tspan><tspan x="392 400" fill="#d4d4d4">⠀⠀</tspan><tspan x="408" fill="#4ec9b0">⡇</tspan><tspan x="416 424 432" fill="#d4d4d4">⠀⠀⠀</tspan><tspan x="440" fill="#4ec9b0">⡇</tspan><tspan x="448 456 464" fill="#d4d4d4">⠀⠀⠀</tspan><tspan x="472" fill="#4ec9b0">⡇</tspan><tspan x="480 488" fill="#d4d4d4">⠀│</tspan></text><text y="156.8"><tspan x="16 24 32 40 48 56 64" fill="#d4d4d4">o  30┤⠀</tspan><tspan x="72 80 88 96 104 112 120 128 136" fill="#4ec9b0">⣇⣀⣀⣀⣇⣀⣀⣀⡇</tspan><tspan x="144" fill="#d4d4d4">⠀</tspan><tspan x="152" fill="#4ec9b0">⢸</tspan><tspan x="160 168 176" fill="#d4d4d4">⠀⠀⠀</tspan><tspan x="184" fill="#4ec9b0">⢸</tspan><tspan x="192 200 208" fill="#d4d4d4">⠀⠀⠀</tspan><tspan x="216" fill="#4ec9b0">⢸</tspan><tspan x="224 232" fill="#d4d4d4">⠀⠀</tspan><tspan x="240 248 256 264 272 280 288 296 304" fill="#4ec9b0">⡖⠒⠒⠒⡗⠒⠒⠒⡆</tspan><tspan x="312" fill="#d4d4d4">⠀</tspan><tspan x="320 328 336 344 352 360 368 376 384" fill="#4ec9b0">⠘⠒⠒⠒⢺⠒⠒⠒⠚</tspan><tspan x="392 400" fill="#d4d4d4">⠀⠀</tspan><tspan x="408 416 424 432 440 448 456 464 472" fill="#4ec9b0">⡗⠒⠒⠒⡗⠒⠒⠒⡇</tspan><tspan x="480 488" fill="#d4d4d4">⠀│</tspan></text><text y="172.8"><tspan x="16 24 32 40 48 56 64" fill="#d4d4d4">r    │⠀</tspan><tspan x="72" fill="#4ec9b0">⡇</tspan><tspan x="80 88 96" fill="#d4d4d4">⠀⠀⠀</tspan><tspan x="104" fill="#4ec9b0">⡇</tspan><tspan x="112 120 128" fill="#d4d4d4">⠀⠀⠀</tspan><tspan x="136" fill="#4ec9b0">⡇</tspan><tspan x="144" fill="#d4d4d4">⠀</tspan><tspan x="152 160 168 176 184 192 200 208 216" fill="#4ec9b0">⠘⠒⠒⠒⢺⠒⠒⠒⠚</tspan><tspan x="224 232" fill="#d4d4d4">⠀⠀</tspan><tspan x="240 248 256 264 272 280 288 296 304" fill="#4ec9b0">⣇⣀⣀⣀⣇⣀⣀⣀⡇</tspan><tspan x="312 320 328" fill="#d4d4d4">⠀⠀⠀</tspan><tspan x="336 344 352 360 368" fill="#4ec9b0">⢀⣀⣸⣀⣀</tspan><tspan x="376 384 392 400" fill="#d4d4d4">⠀⠀⠀⠀</tspan><tspan x="408 416 424 432 440 448 456 464 472" fill="#4ec9b0">⣇⣀⣀⣀⣇⣀⣀⣀⡇</tspan><tspan x="480 488" fill="#d4d4d4">⠀│</tspan></text><text y="188.8"><tspan x="16 24 32 40 48 56 64" fill="#d4d4d4">e  20┤⠀</tspan><tspan x="72 80 88 96 104 112 120 128 136" fill="#4ec9b0">⠓⠒⠒⠒⡗⠒⠒⠒⠃</tspan><tspan x="144 152 160" fill="#d4d4d4">⠀⠀⠀</tspan><tspan x="168 176 184 192 200" fill="#4ec9b0">⢀⣀⣸⣀⣀</tspan><tspan x="208 216 224 232" fill="#d4d4d4">⠀⠀⠀⠀</tspan><tspan x="240" fill="#4ec9b0">⡇</tspan><tspan x="248 256 264" fill="#d4d4d4">⠀⠀⠀</tspan><tspan x="272" fill="#4ec9b0">⡇</tspan><tspan x="280 288 296" fill="#d4d4d4">⠀⠀⠀</tspan><tspan x="304" fill="#4ec9b0">⡇</tspan><tspan x="312 320 328 336 344 352 360 368 376 384 392 400 408 416 424 432" fill="#d4d4d4">⠀⠀⠀⠀⠀⠀⠀⠀⠀⠀⠀⠀⠀⠀⠀⠀</tspan><tspan x="440" fill="#4ec9b0">⡇</tspan><tspan x="448 456 464 472 480 488" fill="#d4d4d4">⠀⠀⠀⠀⠀│</tspan></text><text y="204.8"><tspan x="16 24 32 40 48 56 64 72 80" fill="#d4d4d4">     │⠀⠀⠀</tspan><tspan x="88 96 104 112 120" fill="#4ec9b0">⣀⣀⣇⣀⡀</tspan><tspan x="128 136 144 152 160 168 176 184 192 200 208 216 224 232" fill="#d4d4d4">⠀⠀⠀⠀⠀⠀⠀⠀⠀⠀⠀⠀⠀⠀</tspan><tspan x="240 248 256 264 272 280 288 296 304" fill="#4ec9b0">⠓⠒⠒⠒⡗⠒⠒⠒⠃</tspan><tspan x="312 320 328 336 344 352 360 368 376 384 392 400 408 416" fill="#d4d4d4">⠀⠀⠀⠀⠀⠀⠀⠀⠀⠀⠀⠀⠀⠀</tspan><tspan x="424 432 440 448 456" fill="#4ec9b0">⠒⠒⠓⠒⠂</tspan><tspan x="464 472 480 488" fill="#d4d4d4">⠀⠀⠀│</tspan></text><text y="220.8"><tspan x="16 24 32 40 48 56 64 72 80 88 96 104 112 120 128 136 144 152 160 168 176 184 192 200 208 216 224 232 240 248 256 264" fill="#d4d4d4">   10┤⠀⠀⠀⠀⠀⠀⠀⠀⠀⠀⠀⠀⠀⠀⠀⠀⠀⠀⠀⠀⠀⠀⠀⠀⠀⠀</tspan><tspan x="272" fill="#4ec9b0">⡇</tspan><tspan x="280 288 296 304 312 320 328 336 344 352 360 368 376 384 392 400 408 416 424 432 440 448 456 464 472 480 488" fill="#d4d4d4">⠀⠀⠀⠀⠀⠀⠀⠀⠀⠀⠀⠀⠀⠀⠀⠀⠀⠀⠀⠀⠀⠀⠀⠀⠀⠀│</tspan></text><text y="236.8"><tspan x="16 24 32 40 48 56 64 72 80 88 96 104 112 120 128 136 144 152 160 168 176 184 192 200 208 216 224 232 240 248" fill="#d4d4d4">     │⠀⠀⠀⠀⠀⠀⠀⠀⠀⠀⠀⠀⠀⠀⠀⠀⠀⠀⠀⠀⠀⠀⠀⠀</tspan><tspan x="256 264 272 280 288" fill="#4ec9b0">⠒⠒⠓⠒⠂</tspan><tspan x="296 304 312 320 328 336 344 352 360 368 376 384 392 400 408 416 424 432 440 448 456 464 472 480 488" fill="#d4d4d4">⠀⠀⠀⠀⠀⠀⠀⠀⠀⠀⠀⠀⠀⠀⠀⠀⠀⠀⠀⠀⠀⠀⠀⠀│</tspan></text><text y="252.8"><tspan x="16 24 32 40 48 56 64 72 80 88 96 104 112 120 128 136 144 152 160 168 176 184 192 200 208 216 224 232 240 248 256 264 272 280 288 296 304 312 320 328 336 344 352 360 368 376 384 392 400 408 416 424 432 440 448 456 464 472 480 488" fill="#d4d4d4">    0┤⠀⠀⠀⠀⠀⠀⠀⠀⠀⠀⠀⠀⠀⠀⠀⠀⠀⠀⠀⠀⠀⠀⠀⠀⠀⠀⠀⠀⠀⠀⠀⠀⠀⠀⠀⠀⠀⠀⠀⠀⠀⠀⠀⠀⠀⠀⠀⠀⠀⠀⠀⠀⠀│</tspan></text><text y="268.8"><tspan x="16 24 32 40 48 56 64 72 80 88 96 104 112 120 128 136 144 152 160 168 176 184 192 200 208 216 224 232 240 248 256 264 272 280 288 296 304 312 320 328 336 344 352 360 368 376 384 392 400 408 416 424 432 440 448 456 464 472 480 488" fill="#d4d4d4">     └─────┬──────────┬─────────┬─────────┬──────────┬─────┘</tspan></text><text y="284.8"><tspan x="16 24 32 40 48 56 64 72 80 88 96 104 112 120 128 136 144 152 160 168 176 184 192 200 208 216 224 232 240 248 256 264 272 280 288 296 304 312 320 328 336 344 352 360 368 376 384 392 400 408 416 424 432 440 448 456 464 472 480 488" fill="#d4d4d4">           A          B         C         D          E      </tspan></text><text y="300.8"><tspan x="16 24 32 40 48 56 64 72 80 88 96 104 112 120 128 136 144 152 160 168 176 184 192 200 208 216 224 232 240 248 256 264 272 280 288 296 304 312 320 328 336 344 352 360 368 376 384 392 400 408 416 424 432 440 448 456 464 472 480 488" fill="#d4d4d4">                              group                         </tspan></text><text y="316.8"><tspan x="16 24 32 40 48 56 64 72 80 88 96 104 112 120 128 136 144 152 160 168 176 184 192 200 208 216 224 232 240 248 256 264 272 280 288 296 304 312 320 328 336 344 352 360 368 376 384 392 400 408 416 424 432 440 448 456 464 472 480 488" fill="#d4d4d4">                                                            </tspan></text><text y="332.8"><tspan x="16 24 32 40 48 56 64 72 80 88 96 104 112 120 128 136 144 152 160 168 176 184 192 200 208 216 224 232 240 248 256 264 272 280 288 296 304 312 320 328 336 344 352 360 368 376 384 392 400 408 416 424 432 440 448 456 464 472 480 488" fill="#d4d4d4">                                                            </tspan></text></g></svg>