<svg xmlns="http://www.w3.org/2000/svg" width="512" height="416" viewBox="0 0 512 416"><rect width="100%" height="100%" fill="#1e1e1e" rx="8"/><g font-family="'DejaVu Sans Mono', 'Fira Code', 'Consolas', 'Liberation Mono', monospace" font-size="14px" xml:space="preserve"><text y="28.8"><tspan x="16 24 32 40 48 56 64 72 80 88 96 104 112 120 128 136 144 152 160 168 176 184 192 200 208 216 224 232 240 248 256 264 272 280 288 296 304 312 320 328 336 344 352 360 368 376 384 392 400 408 416 424 432 440 448 456 464 472 480 488" fill="#d4d4d4">                    Language Popularity                     </tspan></text><text y="44.8"><tspan x="16 24 32 40 48 56 64 72 80 88 96 104 112 120 128 136 144 152 160 168 176 184 192 200 208 216 224 232 240 248 256 264 272 280 288 296 304 312 320 328 336 344 352 360 368 376 384 392 400 408 416 424 432 440 448 456 464 472 480 488" fill="#d4d4d4">     ┌─────────────────────────────────────────────────────┐</tspan></text><text y="60.8"><tspan x="16 24 32 40 48 56 64 72 80 88 96 104 112 120 128 136 144 152 160 168 176 184 192 200 208 216 224 232 240 248 256 264 272 280 288 296 304 312 320 328 336 344 352 360 368 376 384 392 400 408 416 424 432 440 448 456 464 472 480 488" fill="#d4d4d4">    1┤⠀⠀⠀⠀⠀⠀⠀⠀⠀⠀⠀⠀⠀⠀⠀⠀⠀⠀⠀⠀⠀⠀⠀⠀⠀⠀⠀⠀⠀⠀⠀⠀⠀⠀⠀⠀⠀⠀⠀⠀⠀⠀⠀⠀⠀⠀⠀⠀⠀⠀⠀⠀⠀│</tspan></text><text y="76.8"><tspan x="16 24 32 40 48 56 64 72 80 88 96 104 112 120 128 136 144 152 160 168 176 184 192 200 208 216 224 232 240 248 256 264 272 280 288 296 304 312 320 328 336 344 352 360 368 376 384 392 400 408 416 424 432 440 448 456 464 472 480 488" fill="#d4d4d4">     │⠀⠀⠀⠀⠀⠀⠀⠀⠀⠀⠀⠀⠀⠀⠀⠀⠀⠀⠀⠀⠀⠀⠀⠀⠀⠀⠀⠀⠀⠀⠀⠀⠀⠀⠀⠀⠀⠀⠀⠀⠀⠀⠀⠀⠀⠀⠀⠀⠀⠀⠀⠀⠀│</tspan></text><text y="92.8"><tspan x="16 24 32 40 48 56 64 72 80 88 96 104 112 120 128 136 144 152 160 168 176" fill="#d4d4d4">     │⠀⠀⠀⠀⠀⠀⠀⠀⠀⠀⠀⠀⠀⠀⠀</tspan><tspan x="184 192 200 208 216 224 232 240 248 256 264 272 280 288 296 304 312 320 328 336 344 352" fill="#569cd6">⢀⣀⣤⣤⣶⣶⣶⣿⣿⣿⣿⣿⣿⣿⣿⣷⣶⣶⣦⣤⣄⣀</tspan><tspan x="360 368 376 384 392 400 408 416 424 432 440 448 456 464 472 480 488" fill="#d4d4d4">⠀⠀⠀⠀⠀⠀⠀⠀⠀⠀⠀⠀⠀⠀⠀⠀│</tspan></text><text y="108.8"><tspan x="16 24 32 40 48 56 64 72 80 88 96 104 112 120 128 136 144" fill="#d4d4d4">     │⠀⠀⠀⠀⠀⠀⠀⠀⠀⠀⠀</tspan><tspan x="152 160 168" fill="#f44747">⢀⣠⣴</tspan><tspan x="176 184" fill="#c586c0">⣾⣿</tspan><tspan x="192 200 208 216 224 232 240 248 256 264 272 280 288 296 304 312 320 328 336 344 352 360 368 376 384" fill="#569cd6">⣿⣿⣿⣿⣿⣿⣿⣿⣿⣿⣿⣿⣿⣿⣿⣿⣿⣿⣿⣿⣿⣿⣶⣤⣀</tspan><tspan x="392 400 408 416 424 432 440 448 456 464 472 480 488" fill="#d4d4d4">⠀⠀⠀⠀⠀⠀⠀⠀⠀⠀⠀⠀│</tspan></text><text y="124.8"><tspan x="16 24 32 40 48 56 64 72 80 88 96 104 112 120 128" fill="#d4d4d4">  0.5┤⠀⠀⠀⠀⠀⠀⠀⠀⠀</tspan><tspan x="136 144 152 160 168 176 184" fill="#f44747">⣠⣾⣿⣿⣿⣿⣿</tspan><tspan x="192 200" fill="#c586c0">⣿⣿</tspan><tspan x="208 216 224 232 240 248 256 264 272 280 288 296 304 312 320 328 336 344 352 360 368 376 384 392 400 408" fill="#569cd6">⣿⣿⣿⣿⣿⣿⣿⣿⣿⣿⣿⣿⣿⣿⣿⣿⣿⣿⣿⣿⣿⣿⣿⣿⣦⡀</tspan><tspan x="416 424 432 440 448 456 464 472 480 488" fill="#d4d4d4">⠀⠀⠀⠀⠀⠀⠀⠀⠀│</tspan></text><text y="140.8"><tspan x="16 24 32 40 48 56 64 72 80 88 96 104 112" fill="#d4d4d4">     │⠀⠀⠀⠀⠀⠀⠀</tspan><tspan x="120 128 136 144 152 160 168 176 184 192 200" fill="#f44747">⣠⣾⣿⣿⣿⣿⣿⣿⣿⣿⣿</tspan><tspan x="208 216 224" fill="#c586c0">⣿⣿⣿</tspan><tspan x="232 240 248 256 264 272 280 288 296 304 312 320 328 336 344 352 360 368 376 384 392 400 408 416 424" fill="#569cd6">⣿⣿⣿⣿⣿⣿⣿⣿⣿⣿⣿⣿⣿⣿⣿⣿⣿⣿⣿⣿⣿⣿⣿⣦⡀</tspan><tspan x="432 440 448 456 464 472 480 488" fill="#d4d4d4">⠀⠀⠀⠀⠀⠀⠀│</tspan></text><text y="156.8"><tspan x="16 24 32 40 48 56 64 72 80 88 96 104" fill="#d4d4d4">     │⠀⠀⠀⠀⠀⠀</tspan><tspan x="112 120 128 136 144 152 160 168 176 184 192 200 208 216 224" fill="#f44747">⣴⣿⣿⣿⣿⣿⣿⣿⣿⣿⣿⣿⣿⣿⣿</tspan><tspan x="232 240" fill="#c586c0">⣿⣿</tspan><tspan x="248 256 264 272 280 288 296 304 312 320 328 336 344 352 360 368 376 384 392 400 408 416 424 432" fill="#569cd6">⣿⣿⣿⣿⣿⣿⣿⣿⣿⣿⣿⣿⣿⣿⣿⣿⣿⣿⣿⣿⣿⣿⣷⡄</tspan><tspan x="440 448 456 464 472 480 488" fill="#d4d4d4">⠀⠀⠀⠀⠀⠀│</tspan></text><text y="172.8"><tspan x="16 24 32 40 48 56 64 72 80 88 96" fill="#d4d4d4">     │⠀⠀⠀⠀⠀</tspan><tspan x="104 112 120 128 136 144 152 160 168 176 184 192 200 208 216 224 232 240" fill="#f44747">⢰⣿⣿⣿⣿⣿⣿⣿⣿⣿⣿⣿⣿⣿⣿⣿⣿⣿</tspan><tspan x="248 256" fill="#c586c0">⣿⣿</tspan><tspan x="264 272 280 288 296 304 312 320 328 336 344 352 360 368 376 384 392 400 408 416 424 432" fill="#569cd6">⣿⣿⣿⣿⣿⣿⣿⣿⣿⣿⣿⣿⣿⣿⣿⣿⣿⣿⣿⣿⣿⣷</tspan><tspan x="440 448 456 464 472 480 488" fill="#d4d4d4">⠀⠀⠀⠀⠀⠀│</tspan></text><text y="188.8"><tspan x="16 24 32 40 48 56 64 72 80 88 96" fill="#d4d4d4">    0┤⠀⠀⠀⠀⠀</tspan><tspan x="104 112 120 128 136 144 152 160 168 176 184 192 200 208 216 224 232 240 248" fill="#f44747">⢸⣿⣿⣿⣿⣿⣿⣿⣿⣿⣿⣿⣿⣿⣿⣿⣿⣿⣿</tspan><tspan x="256" fill="#d7ba7d">⣿</tspan><tspan x="264 272 280 288" fill="#d4d4d4">⣿⣿⣿⣿</tspan><tspan x="296 304 312 320 328 336 344 352 360 368 376 384 392 400 408 416 424 432" fill="#4ec9b0">⣿⣿⣿⣿⣿⣿⣿⣿⣿⣿⣿⣿⣿⣿⣿⣿⣿⣿</tspan><tspan x="440 448 456 464 472 480 488" fill="#d4d4d4">⠀⠀⠀⠀⠀⠀│</tspan></text><text y="204.8"><tspan x="16 24 32 40 48 56 64 72 80 88 96" fill="#d4d4d4">     │⠀⠀⠀⠀⠀</tspan><tspan x="104 112 120 128 136 144 152 160 168 176 184 192 200 208" fill="#f44747">⠘⣿⣿⣿⣿⣿⣿⣿⣿⣿⣿⣿⣿⣿</tspan><tspan x="216 224 232 240" fill="#d7ba7d">⣿⣿⣿⣿</tspan><tspan x="248 256 264 272" fill="#6a9955">⣿⣿⣿⣿</tspan><tspan x="280 288 296" fill="#d7ba7d">⣿⣿⣿</tspan><tspan x="304 312 320 328 336" fill="#d4d4d4">⣿⣿⣿⣿⣿</tspan><tspan x="344 352 360 368 376 384 392 400 408 416 424 432" fill="#4ec9b0">⣿⣿⣿⣿⣿⣿⣿⣿⣿⣿⣿⡟</tspan><tspan x="440 448 456 464 472 480 488" fill="#d4d4d4">⠀⠀⠀⠀⠀⠀│</tspan></text><text y="220.8"><tspan x="16 24 32 40 48 56 64 72 80 88 96 104" fill="#d4d4d4">     │⠀⠀⠀⠀⠀⠀</tspan><tspan x="112 120 128 136 144 152 160 168 176" fill="#f44747">⠙⣿⣿⣿⣿⣿⣿⣿⣿</tspan><tspan x="184 192 200 208" fill="#d7ba7d">⣿⣿⣿⣿</tspan><tspan x="216 224 232 240 248 256 264 272 280" fill="#6a9955">⣿⣿⣿⣿⣿⣿⣿⣿⣿</tspan><tspan x="288 296 304 312 320 328 336 344" fill="#d7ba7d">⣿⣿⣿⣿⣿⣿⣿⣿</tspan><tspan x="352 360 368 376 384" fill="#d4d4d4">⣿⣿⣿⣿⣿</tspan><tspan x="392 400 408 416 424 432" fill="#4ec9b0">⣿⣿⣿⣿⡟⠁</tspan><tspan x="440 448 456 464 472 480 488" fill="#d4d4d4">⠀⠀⠀⠀⠀⠀│</tspan></text><text y="236.8"><tspan x="16 24 32 40 48 56 64 72 80 88 96 104 112" fill="#d4d4d4">     │⠀⠀⠀⠀⠀⠀⠀</tspan><tspan x="120 128 136" fill="#f44747">⠈⠻⣿</tspan><tspan x="144 152 160 168" fill="#d7ba7d">⣿⣿⣿⣿</tspan><tspan x="176 184 192 200 208 216 224 232 240 248 256 264 272 280 288" fill="#6a9955">⣿⣿⣿⣿⣿⣿⣿⣿⣿⣿⣿⣿⣿⣿⣿</tspan><tspan x="296 304 312 320 328 336 344 352 360 368 376 384 392" fill="#d7ba7d">⣿⣿⣿⣿⣿⣿⣿⣿⣿⣿⣿⣿⣿</tspan><tspan x="400 408" fill="#d4d4d4">⣿⡿</tspan><tspan x="416" fill="#4ec9b0">⠋</tspan><tspan x="424 432 440 448 456 464 472 480 488" fill="#d4d4d4">⠀⠀⠀⠀⠀⠀⠀⠀│</tspan></text><text y="252.8"><tspan x="16 24 32 40 48 56 64 72 80 88 96 104 112 120 128" fill="#d4d4d4"> -0.5┤⠀⠀⠀⠀⠀⠀⠀⠀⠀</tspan><tspan x="136 144 152 160 168 176 184 192 200 208 216 224 232 240 248 256 264 272 280 288 296" fill="#6a9955">⠈⠻⢿⣿⣿⣿⣿⣿⣿⣿⣿⣿⣿⣿⣿⣿⣿⣿⣿⣿⣿</tspan><tspan x="304 312 320 328 336 344 352 360 368 376 384 392 400" fill="#d7ba7d">⣿⣿⣿⣿⣿⣿⣿⣿⣿⣿⣿⠿⠋</tspan><tspan x="408 416 424 432 440 448 456 464 472 480 488" fill="#d4d4d4">⠀⠀⠀⠀⠀⠀⠀⠀⠀⠀│</tspan></text><text y="268.8"><tspan x="16 24 32 40 48 56 64 72 80 88 96 104 112 120 128 136 144 152" fill="#d4d4d4">     │⠀⠀⠀⠀⠀⠀⠀⠀⠀⠀⠀⠀</tspan><tspan x="160 168 176 184 192 200 208 216 224 232 240 248 256 264 272 280 288 296 304" fill="#6a9955">⠈⠙⠻⢿⣿⣿⣿⣿⣿⣿⣿⣿⣿⣿⣿⣿⣿⣿⣿</tspan><tspan x="312 320 328 336 344 352 360 368 376" fill="#d7ba7d">⣿⣿⣿⣿⣿⣿⠿⠛⠉</tspan><tspan x="384 392 400 408 416 424 432 440 448 456 464 472 480 488" fill="#d4d4d4">⠀⠀⠀⠀⠀⠀⠀⠀⠀⠀⠀⠀⠀│</tspan></text><text y="284.8"><tspan x="16 24 32 40 48 56 64 72 80 88 96 104 112 120 128 136 144 152 160 168 176 184 192" fill="#d4d4d4">     │⠀⠀⠀⠀⠀⠀⠀⠀⠀⠀⠀⠀⠀⠀⠀⠀⠀</tspan><tspan x="200 208 216 224 232 240 248 256 264 272 280 288 296 304 312" fill="#6a9955">⠉⠉⠛⠛⠛⠿⠿⠿⠿⠿⠿⠿⠿⠟⠛</tspan><tspan x="320 328 336 344" fill="#d7ba7d">⠛⠋⠉⠁</tspan><tspan x="352 360 368 376 384 392 400 408 416 424 432 440 448 456 464 472 480 488" fill="#d4d4d4">⠀⠀⠀⠀⠀⠀⠀⠀⠀⠀⠀⠀⠀⠀⠀⠀⠀│</tspan></text><text y="300.8"><tspan x="16 24 32 40 48 56 64 72 80 88 96 104 112 120 128 136 144 152 160 168 176 184 192 200 208 216 224 232 240 248 256 264 272 280 288 296 304 312 320 328 336 344 352 360 368 376 384 392 400 408 416 424 432 440 448 456 464 472 480 488" fill="#d4d4d4">     │⠀⠀⠀⠀⠀⠀⠀⠀⠀⠀⠀⠀⠀⠀⠀⠀⠀⠀⠀⠀⠀⠀⠀⠀⠀⠀⠀⠀⠀⠀⠀⠀⠀⠀⠀⠀⠀⠀⠀⠀⠀⠀⠀⠀⠀⠀⠀⠀⠀⠀⠀⠀⠀│</tspan></text><text y="316.8"><tspan x="16 24 32 40 48 56 64 72 80 88 96 104 112 120 128 136 144 152 160 168 176 184 192 200 208 216 224 232 240 248 256 264 272 280 288 296 304 312 320 328 336 344 352 360 368 376 384 392 400 408 416 424 432 440 448 456 464 472 480 488" fill="#d4d4d4">   -1┤⠀⠀⠀⠀⠀⠀⠀⠀⠀⠀⠀⠀⠀⠀⠀⠀⠀⠀⠀⠀⠀⠀⠀⠀⠀⠀⠀⠀⠀⠀⠀⠀⠀⠀⠀⠀⠀⠀⠀⠀⠀⠀⠀⠀⠀⠀⠀⠀⠀⠀⠀⠀⠀│</tspan></text><text y="332.8"><tspan x="16 24 32 40 48 56 64 72 80 88 96 104 112 120 128 136 144 152 160 168 176 184 192 200 208 216 224 232 240 248 256 264 272 280 288 296 304 312 320 328 336 344 352 360 368 376 384 392 400 408 416 424 432 440 448 456 464 472 480 488" fill="#d4d4d4">     └┬────────────┬────────────┬────────────┬────────────┬┘</tspan></text><text y="348.8"><tspan x="16 24 32 40 48 56 64 72 80 88 96 104 112 120 128 136 144 152 160 168 176 184 192 200 208 216 224 232 240 248 256 264 272 280 288 296 304 312 320 328 336 344 352 360 368 376 384 392 400 408 416 424 432 440 448 456 464 472 480 488" fill="#d4d4d4">     -1          -0.5           0           0.5           1 </tspan></text><text y="364.8"><tspan x="16 24 32 40 48 56 64 72 80 88 96 104 112 120 128 136 144 152 160 168 176 184 192 200 208 216 224 232 240 248 256 264 272 280 288 296 304 312 320 328 336 344 352 360 368 376 384 392 400 408 416 424 432 440 448 456 464 472 480 488" fill="#d4d4d4">                                                            </tspan></text><text y="380.8"><tspan x="16 24 32 40 48 56 64 72 80 88 96 104 112 120 128 136 144 152 160 168 176 184 192 200 208 216 224 232 240 248 256 264 272 280 288 296 304 312 320 328 336 344 352 360 368 376 384 392 400 408 416 424 432 440 448 456 464 472 480 488" fill="#d4d4d4">                                                            </tspan></text><text y="396.8"><tspan x="16 24 32 40 48 56 64 72 80 88 96 104 112 120 128 136 144 152 160 168 176 184 192 200 208 216 224 232 240 248 256 264 272 280 288 296 304 312 320 328 336 344 352 360 368 376 384 392 400 408 416 424 432 440 448 456 464 472 480 488" fill="#d4d4d4">                                                            </tspan></text></g></svg>