<svg xmlns="http://www.w3.org/2000/svg" width="672" height="416" viewBox="0 0 672 416"><rect width="100%" height="100%" fill="#1e1e1e" rx="8"/><g font-family="'DejaVu Sans Mono', 'Fira Code', 'Consolas', 'Liberation Mono', monospace" font-size="14px" xml:space="preserve"><text y="28.8"><tspan x="16 24 32 40 48 56 64 72 80 88 96 104 112 120 128 136 144 152 160 168 176 184 192 200 208 216 224 232 240 248 256 264 272 280 288 296 304 312 320 328 336 344 352 360 368 376 384 392 400 408 416 424 432 440 448 456 464 472 480 488 496 504 512 520 528 536 544 552 560 568 576 584 592 600 608 616 624 632 640 648" fill="#d4d4d4">                                  Scatter Plot                                  </tspan></text><text y="44.8"><tspan x="16 24 32 40 48 56 64 72 80 88 96 104 112 120 128 136 144 152 160 168 176 184 192 200 208 216 224 232 240 248 256 264 272 280 288 296 304 312 320 328 336 344 352 360 368 376 384 392 400 408 416 424 432 440 448 456 464 472 480 488 496 504 512 520 528 536 544 552 560 568 576 584 592 600 608 616 624 632 640 648" fill="#d4d4d4">     ┌───────────────────────────────────────────────────────────────────────┐  </tspan></text><text y="60.8"><tspan x="16 24 32 40 48 56 64 72 80 88 96 104 112 120 128 136 144 152 160 168 176 184 192 200 208 216 224 232 240 248 256 264 272 280 288 296 304 312 320 328 336 344 352 360 368 376 384 392 400 408 416 424 432 440 448 456 464 472 480 488 496 504 512 520 528 536 544 552 560 568 576 584 592 600 608 616 624 632 640 648" fill="#d4d4d4">   10┤⠀⠀⠀⠀⠀⠀⠀⠀⠀⠀⠀⠀⠀⠀⠀⠀⠀⠀⠀⠀⠀⠀⠀⠀⠀⠀⠀⠀⠀⠀⠀⠀⠀⠀⠀⠀⠀⠀⠀⠀⠀⠀⠀⠀⠀⠀⠀⠀⠀⠀⠀⠀⠀⠀┌──────────────┐⠀│  </tspan></text><text y="76.8"><tspan x="16 24 32 40 48 56 64 72 80 88 96 104 112 120 128 136 144 152 160 168 176 184 192 200 208 216 224 232 240 248 256 264 272 280 288 296 304 312 320 328 336 344 352 360 368 376 384" fill="#d4d4d4">     │⠀⠀⠀⠀⠀⠀⠀⠀⠀⠀⠀⠀⠀⠀⠀⠀⠀⠀⠀⠀⠀⠀⠀⠀⠀⠀⠀⠀⠀⠀⠀⠀⠀⠀⠀⠀⠀⠀⠀⠀⠀</tspan><tspan x="392 400 408 416 424 432 440" fill="#569cd6">⣠⣠⣴⢴⢴⣄⡀</tspan><tspan x="448 456 464 472 480 488 496 504 512" fill="#d4d4d4">⠀⠀⠀⠀⠀⠀│  </tspan><tspan x="520" fill="#f44747">o</tspan><tspan x="528 536 544 552 560 568 576 584 592 600 608 616 624 632 640 648" fill="#d4d4d4">   Group A │⠀│  </tspan></text><text y="92.8"><tspan x="16 24 32 40 48 56 64 72 80 88 96 104 112 120 128 136 144 152 160 168 176 184 192 200 208 216 224 232 240 248 256 264 272 280 288 296 304 312 320 328 336 344 352 360 368 376" fill="#d4d4d4">     │⠀⠀⠀⠀⠀⠀⠀⠀⠀⠀⠀⠀⠀⠀⠀⠀⠀⠀⠀⠀⠀⠀⠀⠀⠀⠀⠀⠀⠀⠀⠀⠀⠀⠀⠀⠀⠀⠀⠀⠀</tspan><tspan x="384 392 400 408" fill="#569cd6">⠘⠿⡮⢀</tspan><tspan x="416" fill="#d4d4d4">⠀</tspan><tspan x="424 432 440 448 456 464 472 480 488" fill="#569cd6">⢀⠉⠻⠒⠗⠠⡦⠠⡦</tspan><tspan x="496 504 512" fill="#d4d4d4">│  </tspan><tspan x="520" fill="#569cd6">+</tspan><tspan x="528 536 544 552 560 568 576 584 592 600 608 616 624 632 640 648" fill="#d4d4d4">   Group B │⠀│  </tspan></text><text y="108.8"><tspan x="16 24 32 40 48 56 64 72 80 88 96 104 112 120 128 136 144 152 160 168 176 184 192 200 208 216 224 232 240" fill="#d4d4d4">    8┤⠀⠀⠀⠀⠀⠀⠀⠀⠀⠀⠀⠀⠀⠀⠀⠀⠀⠀⠀⠀⠀⠀⠀</tspan><tspan x="248 256 264" fill="#6a9955">⢀⢀⢀</tspan><tspan x="272 280 288 296 304 312 320 328 336" fill="#d4d4d4">⠀⠀⠀⠀⠀⠀⠀⠀⠀</tspan><tspan x="344 352" fill="#6a9955">⡀⢀</tspan><tspan x="360 368 376 384 392 400" fill="#d4d4d4">⠀⠀⠀⠀⠀⠀</tspan><tspan x="408 416 424 432 440 448 456 464 472 480 488" fill="#569cd6">⠙⠁⠙⠁⠺⠢⡦⣶⣦⣠⣀</tspan><tspan x="496 504 512" fill="#d4d4d4">│  </tspan><tspan x="520" fill="#6a9955">◇</tspan><tspan x="528 536 544 552 560 568 576 584 592 600 608 616 624 632 640 648" fill="#d4d4d4">   Group C │⠀│  </tspan></text><text y="124.8"><tspan x="16 24 32 40 48 56 64 72 80 88 96 104 112 120 128 136 144 152 160 168 176 184 192 200 208 216 224 232 240" fill="#d4d4d4">     │⠀⠀⠀⠀⠀⠀⠀⠀⠀⠀⠀⠀⠀⠀⠀⠀⠀⠀⠀⠀⠀⠀⠀</tspan><tspan x="248 256 264 272 280 288 296 304" fill="#6a9955">⠑⠑⠑⠫⠢⣢⢄⢀</tspan><tspan x="312 320 328" fill="#d4d4d4">⠀⠀⠀</tspan><tspan x="336 344 352 360 368 376 384 392 400" fill="#6a9955">⠈⠊⠑⠑⠕⠪⡢⡀⡀</tspan><tspan x="408 416 424 432 440 448" fill="#d4d4d4">⠀⠀⠀⠀⠀⠀</tspan><tspan x="456 464 472 480 488" fill="#569cd6">⢴⣤⣈⣌⠙</tspan><tspan x="496 504 512 520 528 536 544 552 560 568 576 584 592 600 608 616 624 632 640 648" fill="#d4d4d4">└──────────────┘⠀│  </tspan></text><text y="140.8"><tspan x="16 24 32 40 48 56 64 72 80 88 96 104 112 120 128 136 144 152 160 168 176 184 192 200 208 216 224 232 240 248 256 264 272 280 288" fill="#d4d4d4">     │⠀⠀⠀⠀⠀⠀⠀⠀⠀⠀⠀⠀⠀⠀⠀⠀⠀⠀⠀⠀⠀⠀⠀⠀⠀⠀⠀⠀⠀</tspan><tspan x="296 304 312 320 328 336" fill="#6a9955">⠁⠑⠡⡢⡠⡀</tspan><tspan x="344 352 360 368 376" fill="#d4d4d4">⠀⠀⠀⠀⠀</tspan><tspan x="384 392 400 408 416 424" fill="#6a9955">⠈⠈⠚⠕⡠⡀</tspan><tspan x="432 440 448 456" fill="#d4d4d4">⠀⠀⠀⠀</tspan><tspan x="464" fill="#569cd6">⠈</tspan><tspan x="472" fill="#d4d4d4">⠀</tspan><tspan x="480 488 496 504 512 520 528" fill="#569cd6">⠁⠈⠋⠙⠉⠛⠁</tspan><tspan x="536 544 552 560 568 576 584 592 600 608 616 624 632 640 648" fill="#d4d4d4">⠀⠀⠀⠀⠀⠀⠀⠀⠀⠀⠀⠀│  </tspan></text><text y="156.8"><tspan x="16 24 32 40 48 56 64 72 80 88 96 104 112 120 128 136 144 152 160 168 176 184 192 200 208 216 224 232 240 248 256 264 272 280 288 296 304 312 320" fill="#d4d4d4">    6┤⠀⠀⠀⠀⠀⠀⠀⠀⠀⠀⠀⠀⠀⠀⠀⠀⠀⠀⠀⠀⠀⠀⠀⠀⠀⠀⠀⠀⠀⠀⠀⠀⠀</tspan><tspan x="328 336 344 352 360" fill="#6a9955">⠈⠐⠕⡠⡀</tspan><tspan x="368 376 384 392 400 408" fill="#d4d4d4">⠀⠀⠀⠀⠀⠀</tspan><tspan x="416 424 432 440" fill="#6a9955">⠈⠪⡢⡀</tspan><tspan x="448 456 464 472 480 488 496 504 512 520 528 536 544 552 560 568 576 584 592 600 608 616 624 632 640 648" fill="#d4d4d4">⠀⠀⠀⠀⠀⠀⠀⠀⠀⠀⠀⠀⠀⠀⠀⠀⠀⠀⠀⠀⠀⠀⠀│  </tspan></text><text y="172.8"><tspan x="16 24 32 40 48 56 64 72 80 88 96 104 112 120 128 136 144 152 160" fill="#d4d4d4">y    │⠀⠀⠀⠀⠀⠀⠀⠀⠀⠀⠀⠀⠀</tspan><tspan x="168 176" fill="#f44747">⢀⣀</tspan><tspan x="184" fill="#d4d4d4">⠀</tspan><tspan x="192 200" fill="#f44747">⣀⡀</tspan><tspan x="208 216 224 232 240 248 256 264 272 280 288 296 304 312 320 328 336 344" fill="#d4d4d4">⠀⠀⠀⠀⠀⠀⠀⠀⠀⠀⠀⠀⠀⠀⠀⠀⠀⠀</tspan><tspan x="352 360 368 376" fill="#6a9955">⠈⠐⢕⢄</tspan><tspan x="384 392 400 408 416 424" fill="#d4d4d4">⠀⠀⠀⠀⠀⠀</tspan><tspan x="432 440 448" fill="#6a9955">⠘⢕⢄</tspan><tspan x="456 464 472 480 488 496 504 512 520 528 536 544 552 560 568 576 584 592 600 608 616 624 632 640 648" fill="#d4d4d4">⠀⠀⠀⠀⠀⠀⠀⠀⠀⠀⠀⠀⠀⠀⠀⠀⠀⠀⠀⠀⠀⠀│  </tspan></text><text y="188.8"><tspan x="16 24 32 40 48 56 64 72 80 88 96 104 112" fill="#d4d4d4">     │⠀⠀⠀⠀⠀⠀⠀</tspan><tspan x="120 128 136 144 152" fill="#f44747">⢀⣠⢴⣶⡆</tspan><tspan x="160" fill="#d4d4d4">⠀</tspan><tspan x="168 176" fill="#f44747">⠘⠚</tspan><tspan x="184" fill="#d4d4d4">⠀</tspan><tspan x="192 200 208 216 224 232 240" fill="#f44747">⠓⠃⠸⠽⣖⡦⡄</tspan><tspan x="248 256 264 272 280 288 296 304 312 320 328 336 344 352 360 368" fill="#d4d4d4">⠀⠀⠀⠀⠀⠀⠀⠀⠀⠀⠀⠀⠀⠀⠀⠀</tspan><tspan x="376 384 392 400 408" fill="#6a9955">⠁⠪⢂⢄⡀</tspan><tspan x="416 424 432 440" fill="#d4d4d4">⠀⠀⠀⠀</tspan><tspan x="448 456" fill="#6a9955">⡫⡂</tspan><tspan x="464 472 480 488 496 504 512 520 528 536 544 552 560 568 576 584 592 600 608 616 624 632 640 648" fill="#d4d4d4">⠀⠀⠀⠀⠀⠀⠀⠀⠀⠀⠀⠀⠀⠀⠀⠀⠀⠀⠀⠀⠀│  </tspan></text><text y="204.8"><tspan x="16 24 32 40 48 56 64 72" fill="#d4d4d4">    4┤⠀⠀</tspan><tspan x="80 88 96 104 112 120 128 136" fill="#f44747">⣀⡀⣖⡾⠽⠘⠚⠉</tspan><tspan x="144 152 160 168 176 184 192 200 208 216 224" fill="#d4d4d4">⠀⠀⠀⠀⠀⠀⠀⠀⠀⠀⠀</tspan><tspan x="232 240" fill="#f44747">⣹⣿</tspan><tspan x="248 256 264 272 280 288 296 304 312 320 328 336 344 352 360 368 376 384 392" fill="#d4d4d4">⠀⠀⠀⠀⠀⠀⠀⠀⠀⠀⠀⠀⠀⠀⠀⠀⠀⠀⠀</tspan><tspan x="400 408 416 424 432 440 448 456" fill="#6a9955">⠉⠊⢔⡤⡠⡀⣸⣟</tspan><tspan x="464 472 480 488 496 504 512 520 528 536 544 552 560 568 576 584 592 600 608 616 624 632 640 648" fill="#d4d4d4">⠀⠀⠀⠀⠀⠀⠀⠀⠀⠀⠀⠀⠀⠀⠀⠀⠀⠀⠀⠀⠀│  </tspan></text><text y="220.8"><tspan x="16 24 32 40 48 56 64" fill="#d4d4d4">     │⠀</tspan><tspan x="72 80 88" fill="#f44747">⣖⡗⠃</tspan><tspan x="96 104 112 120 128 136 144 152 160 168 176 184 192 200 208 216 224" fill="#d4d4d4">⠀⠀⠀⠀⠀⠀⠀⠀⠀⠀⠀⠀⠀⠀⠀⠀⠀</tspan><tspan x="232 240 248" fill="#f44747">⢻⢿⣀</tspan><tspan x="256 264 272 280 288 296 304 312 320 328 336 344 352 360 368 376 384 392 400 408 416" fill="#d4d4d4">⠀⠀⠀⠀⠀⠀⠀⠀⠀⠀⠀⠀⠀⠀⠀⠀⠀⠀⠀⠀⠀</tspan><tspan x="424 432 440 448 456" fill="#6a9955">⠈⠈⠊⠛⠁</tspan><tspan x="464 472 480 488 496 504 512 520 528 536 544 552 560 568 576 584 592 600 608 616 624 632 640 648" fill="#d4d4d4">⠀⠀⠀⠀⠀⠀⠀⠀⠀⠀⠀⠀⠀⠀⠀⠀⠀⠀⠀⠀⠀│  </tspan></text><text y="236.8"><tspan x="16 24 32 40 48 56 64" fill="#d4d4d4">     │⠀</tspan><tspan x="72 80 88 96" fill="#f44747">⢳⣳⣀⡀</tspan><tspan x="104 112 120 128 136 144 152 160 168 176 184 192 200 208 216 224" fill="#d4d4d4">⠀⠀⠀⠀⠀⠀⠀⠀⠀⠀⠀⠀⠀⠀⠀⠀</tspan><tspan x="232 240 248 256 264 272" fill="#f44747">⢈⣙⢺⣽⣶⡄</tspan><tspan x="280 288 296 304 312 320 328 336 344 352 360 368 376 384 392 400 408 416 424 432 440 448 456 464 472 480 488 496 504 512 520 528 536 544 552 560 568 576 584 592 600 608 616 624 632 640 648" fill="#d4d4d4">⠀⠀⠀⠀⠀⠀⠀⠀⠀⠀⠀⠀⠀⠀⠀⠀⠀⠀⠀⠀⠀⠀⠀⠀⠀⠀⠀⠀⠀⠀⠀⠀⠀⠀⠀⠀⠀⠀⠀⠀⠀⠀⠀⠀│  </tspan></text><text y="252.8"><tspan x="16 24 32 40 48 56 64 72 80" fill="#d4d4d4">    2┤⠀⠀⠀</tspan><tspan x="88 96 104 112 120 128 136 144 152 160 168 176 184" fill="#f44747">⠓⠻⠽⢰⣲⢠⢤⣀⣤⡤⣖⣶⣲</tspan><tspan x="192" fill="#d4d4d4">⠀</tspan><tspan x="200 208 216 224 232 240 248 256 264 272" fill="#f44747">⠯⠇⠸⠽⠘⠚⠘⠚⠉⠁</tspan><tspan x="280 288 296 304 312 320 328 336 344 352 360 368 376 384 392 400 408 416 424 432 440 448 456 464 472 480 488 496 504 512 520 528 536 544 552 560 568 576 584 592 600 608 616 624 632 640 648" fill="#d4d4d4">⠀⠀⠀⠀⠀⠀⠀⠀⠀⠀⠀⠀⠀⠀⠀⠀⠀⠀⠀⠀⠀⠀⠀⠀⠀⠀⠀⠀⠀⠀⠀⠀⠀⠀⠀⠀⠀⠀⠀⠀⠀⠀⠀⠀│  </tspan></text><text y="268.8"><tspan x="16 24 32 40 48 56 64 72 80 88 96 104 112 120" fill="#d4d4d4">     │⠀⠀⠀⠀⠀⠀⠀⠀</tspan><tspan x="128 136 144 152 160 168" fill="#f44747">⠈⠙⠚⠛⠉⠁</tspan><tspan x="176 184 192 200 208 216 224 232 240 248 256 264 272 280 288 296 304 312 320 328 336 344 352 360 368 376 384 392 400 408 416 424 432 440 448 456 464 472 480 488 496 504 512 520 528 536 544 552 560 568 576 584 592 600 608 616 624 632 640 648" fill="#d4d4d4">⠀⠀⠀⠀⠀⠀⠀⠀⠀⠀⠀⠀⠀⠀⠀⠀⠀⠀⠀⠀⠀⠀⠀⠀⠀⠀⠀⠀⠀⠀⠀⠀⠀⠀⠀⠀⠀⠀⠀⠀⠀⠀⠀⠀⠀⠀⠀⠀⠀⠀⠀⠀⠀⠀⠀⠀⠀│  </tspan></text><text y="284.8"><tspan x="16 24 32 40 48 56 64 72 80 88 96 104 112 120 128 136 144 152 160 168 176 184 192 200 208 216 224 232 240 248 256 264 272 280 288 296 304 312 320 328 336 344 352 360 368 376 384 392 400 408 416 424 432 440 448 456 464 472 480 488 496 504 512 520 528 536 544 552 560 568 576 584 592 600 608 616 624 632 640 648" fill="#d4d4d4">     │⠀⠀⠀⠀⠀⠀⠀⠀⠀⠀⠀⠀⠀⠀⠀⠀⠀⠀⠀⠀⠀⠀⠀⠀⠀⠀⠀⠀⠀⠀⠀⠀⠀⠀⠀⠀⠀⠀⠀⠀⠀⠀⠀⠀⠀⠀⠀⠀⠀⠀⠀⠀⠀⠀⠀⠀⠀⠀⠀⠀⠀⠀⠀⠀⠀⠀⠀⠀⠀⠀⠀│  </tspan></text><text y="300.8"><tspan x="16 24 32 40 48 56 64 72 80 88 96 104 112 120 128 136 144 152 160 168 176 184 192 200 208 216 224 232 240 248 256 264 272 280 288 296 304 312 320 328 336 344 352 360 368 376 384 392 400 408 416 424 432 440 448 456 464 472 480 488 496 504 512 520 528 536 544 552 560 568 576 584 592 600 608 616 624 632 640 648" fill="#d4d4d4">    0┤⠀⠀⠀⠀⠀⠀⠀⠀⠀⠀⠀⠀⠀⠀⠀⠀⠀⠀⠀⠀⠀⠀⠀⠀⠀⠀⠀⠀⠀⠀⠀⠀⠀⠀⠀⠀⠀⠀⠀⠀⠀⠀⠀⠀⠀⠀⠀⠀⠀⠀⠀⠀⠀⠀⠀⠀⠀⠀⠀⠀⠀⠀⠀⠀⠀⠀⠀⠀⠀⠀⠀│  </tspan></text><text y="316.8"><tspan x="16 24 32 40 48 56 64 72 80 88 96 104 112 120 128 136 144 152 160 168 176 184 192 200 208 216 224 232 240 248 256 264 272 280 288 296 304 312 320 328 336 344 352 360 368 376 384 392 400 408 416 424 432 440 448 456 464 472 480 488 496 504 512 520 528 536 544 552 560 568 576 584 592 600 608 616 624 632 640 648" fill="#d4d4d4">     └┬─────────────┬─────────────┬─────────────┬─────────────┬─────────────┬┘  </tspan></text><text y="332.8"><tspan x="16 24 32 40 48 56 64 72 80 88 96 104 112 120 128 136 144 152 160 168 176 184 192 200 208 216 224 232 240 248 256 264 272 280 288 296 304 312 320 328 336 344 352 360 368 376 384 392 400 408 416 424 432 440 448 456 464 472 480 488 496 504 512 520 528 536 544 552 560 568 576 584 592 600 608 616 624 632 640 648" fill="#d4d4d4">      0             2             4             6             8            10   </tspan></text><text y="348.8"><tspan x="16 24 32 40 48 56 64 72 80 88 96 104 112 120 128 136 144 152 160 168 176 184 192 200 208 216 224 232 240 248 256 264 272 280 288 296 304 312 320 328 336 344 352 360 368 376 384 392 400 408 416 424 432 440 448 456 464 472 480 488 496 504 512 520 528 536 544 552 560 568 576 584 592 600 608 616 624 632 640 648" fill="#d4d4d4">                                         x                                      </tspan></text><text y="364.8"><tspan x="16 24 32 40 48 56 64 72 80 88 96 104 112 120 128 136 144 152 160 168 176 184 192 200 208 216 224 232 240 248 256 264 272 280 288 296 304 312 320 328 336 344 352 360 368 376 384 392 400 408 416 424 432 440 448 456 464 472 480 488 496 504 512 520 528 536 544 552 560 568 576 584 592 600 608 616 624 632 640 648" fill="#d4d4d4">                                                                                </tspan></text><text y="380.8"><tspan x="16 24 32 40 48 56 64 72 80 88 96 104 112 120 128 136 144 152 160 168 176 184 192 200 208 216 224 232 240 248 256 264 272 280 288 296 304 312 320 328 336 344 352 360 368 376 384 392 400 408 416 424 432 440 448 456 464 472 480 488 496 504 512 520 528 536 544 552 560 568 576 584 592 600 608 616 624 632 640 648" fill="#d4d4d4">                                                                                </tspan></text><text y="396.8"><tspan x="16 24 32 40 48 56 64 72 80 88 96 104 112 120 128 136 144 152 160 168 176 184 192 200 208 216 224 232 240 248 256 264 272 280 288 296 304 312 320 328 336 344 352 360 368 376 384 392 400 408 416 424 432 440 448 456 464 472 480 488 496 504 512 520 528 536 544 552 560 568 576 584 592 600 608 616 624 632 640 648" fill="#d4d4d4">                                                                                </tspan></text></g></svg>